# xmcd CD database file
# Copyright (C) 1993-1998 Ti Kan
# 
# Track frame offsets:
#     182
#     13547
#     26907
#     36920
#     52245
#     62507
#     72232
#     81892
#     93435
#     104260
#     116730
#     130515
#     141792
#     154495
#     166790
#     179592
#     191722
#     203447
#     215437
#     227527
#     238132
# 
# Disc length: 3345 seconds
# 
# Revision: 1
# Processed by: cddbd v1.4b41PL1 Copyright (c) Steve Scherf et al.
# Submitted via: DiscPlay 4.0.4
# 
DISCID=280d0f15
DTITLE=Magic Sam - Easy Baby
DYEAR=1900
DGENRE=
TTITLE0=All Your Love
TTITLE1=Everything Gonna Be Alright
TTITLE2=Look Watcha Done
TTITLE3=Easy Baby
TTITLE4=All My Whole Life
TTITLE5=Love Me With A Feeling
TTITLE6=Every Night About This Time
TTITLE7=She Belongs To Me
TTITLE8=Out Of Bad Luck
TTITLE9=Roll Your Money Maker
TTITLE10=Call Me If You Need Me
TTITLE11=Magic Rocker
TTITLE12=All Night Long
TTITLE13=21 Days In Jail
TTITLE14=Love Me This Way
TTITLE15=My Love Is Your Love
TTITLE16=Mr. Charlie
TTITLE17=Blue Light Boogie
TTITLE18=You Don't Have To Work
TTITLE19=Square Dance Rock pt1
TTITLE20=Square Dance Rock pt2
EXTD=
EXTT0=
EXTT1=
EXTT2=
EXTT3=
EXTT4=
EXTT5=
EXTT6=
EXTT7=
EXTT8=
EXTT9=
EXTT10=
EXTT11=
EXTT12=
EXTT13=
EXTT14=
EXTT15=
EXTT16=
EXTT17=
EXTT18=
EXTT19=
EXTT20=
PLAYORDER=
